<svg width="275" height="40" viewBox="0 0 275 40" fill="none" xmlns="http://www.w3.org/2000/svg">
<path fill-rule="evenodd" clip-rule="evenodd" d="M53.4216 0.887051L53.8942 0.760437L54.377 0.680596L54.8645 0.648333L55.354 0.663924L55.8388 0.727161L56.2345 0.816016L56.6174 0.94961L56.9826 1.12631L57.3256 1.34374L57.641 1.59906L57.9259 1.88888L58.1791 2.21272L58.3864 2.56781L58.5444 2.94765L58.6497 3.34544L58.701 3.75387L58.697 4.16548L58.6376 4.57276L58.5241 4.96832L58.3587 5.34489L58.144 5.69571L57.884 6.01434L57.5843 6.29488L57.2494 6.53237L56.8571 6.7841L56.4384 6.98784L55.9982 7.14075L55.5438 7.24065L55.0806 7.2862L54.6154 7.27678L54.1542 7.21246L53.7038 7.09418L53.2704 6.92358L52.8605 6.70303L52.4783 6.43558L52.1313 6.12489L51.822 5.77535L51.5567 5.39179L51.3892 5.02979L51.269 4.64942L51.1981 4.25678L51.1772 3.85825L51.2076 3.46032L51.2873 3.06944L51.4162 2.69192L51.5918 2.33391L51.8112 2.00126L52.0712 1.69923L52.3669 1.4328L52.6944 1.20635L53.0475 1.02342L53.4216 0.887051Z" fill="white"/>
<path fill-rule="evenodd" clip-rule="evenodd" d="M62.0582 9.57825H68.5334L68.5402 12.0103L68.9851 11.5303L69.4699 11.0902L69.9905 10.6933L70.5428 10.3425L71.1228 10.0402L71.7271 9.78884L72.3497 9.59018L72.9871 9.44561L73.6346 9.35628L74.2875 9.32273L74.852 9.30727L75.4165 9.33093L75.9776 9.39363L76.5326 9.49495L77.0802 9.63444L77.5245 9.78423L77.9532 9.9736L78.3637 10.2011L78.752 10.4648L79.1146 10.7626L79.4495 11.0921L79.7925 11.5146L80.101 11.9635L80.3731 12.4352L80.6061 12.928L80.7992 13.4377L80.9511 13.9616L81.126 14.7634L81.255 15.5741L81.3367 16.3908L81.3718 17.2109L81.3812 24.1473L81.3643 31.0838H74.6379L74.64 17.1987L74.6265 16.8191L74.5684 16.4436L74.4678 16.0777L74.3253 15.7259L74.1781 15.4636L73.9911 15.2284L73.7689 15.0257L73.5178 14.861L73.2443 14.7383L72.7514 14.6014L72.247 14.5187L71.7366 14.491L71.2261 14.5187L70.7217 14.6021L70.374 14.6936L70.0411 14.8285L69.7278 15.0061L69.4409 15.2223L69.1836 15.4737L68.9601 15.7564L68.7758 16.0654L68.7522 21.0716L68.7576 26.0777L68.7927 31.0838H62.0582V9.57825Z" fill="white"/>
<path fill-rule="evenodd" clip-rule="evenodd" d="M87.0523 11.3696L87.6215 10.9598L88.2177 10.5917L88.8382 10.267L89.4803 9.98749L90.1407 9.75454L90.8159 9.5693L91.5026 9.43266L92.1974 9.34535L92.8962 9.30787L93.5957 9.32041L94.3574 9.3051L95.1183 9.3436L95.8746 9.43557L96.6227 9.58068L97.3587 9.77812L98.0791 10.027L98.7806 10.326L99.4585 10.6738L100.111 11.0685L100.735 11.5082L101.143 11.8707L101.518 12.2679L101.856 12.6976L102.154 13.1558L102.41 13.639L102.622 14.1433L102.788 14.6645L102.907 15.1986L102.978 15.7408L103 16.2878L102.864 16.2899L100.669 16.3203L98.4714 16.3143L96.2756 16.2715L96.2574 15.9381L96.2047 15.6087L96.1196 15.2861L96.0022 14.9736L95.8806 14.7384L95.728 14.5229L95.5457 14.3311L95.3391 14.1664L95.1109 14.0335L94.7604 13.9034L94.3992 13.8098L94.0306 13.7529L93.6578 13.7339L93.2845 13.7529L92.9178 13.8085L92.5613 13.9142L92.2223 14.0667L91.907 14.264L91.6214 14.5019L91.4276 14.7052L91.2717 14.939L91.1589 15.1959L91.0921 15.4691L91.0731 15.7497L91.1029 16.0296L91.1812 16.2993L91.3041 16.5522L91.4695 16.7792L91.6714 16.9744L92.0171 17.2177L92.3844 17.4285L92.7686 17.6041L93.1676 17.7444L93.9914 17.9626L94.8259 18.1307L95.8469 18.3422L96.8151 18.5787L97.7698 18.8654L98.7091 19.2002L99.258 19.4354L99.788 19.7113L100.296 20.0251L100.781 20.3762L101.237 20.7619L101.606 21.1611L101.937 21.5935L102.224 22.0557L102.468 22.5424L102.665 23.0501L102.814 23.574L102.912 24.1094L102.961 24.6523L102.958 25.1973L102.905 25.7395L102.801 26.2743L102.648 26.7968L102.445 27.2679L102.205 27.7213L101.928 28.1524L101.617 28.5597L101.272 28.94L100.899 29.2897L100.497 29.6083L99.9028 30.0122L99.2783 30.3688L98.6274 30.6738L97.9549 30.9266L97.2641 31.1245L96.4822 31.3217L95.6889 31.4695L94.8887 31.5657L94.0832 31.6111L93.277 31.605L92.4729 31.5481L91.6734 31.4397L90.8827 31.2804L90.1035 31.0716L89.3392 30.8134L88.5931 30.507L87.8673 30.1539L87.3399 29.8516L86.8403 29.5046L86.373 29.1155L85.9402 28.6878L85.5466 28.2236L85.1941 27.7274L84.8862 27.2022L84.6243 26.6518L84.4109 26.0811L84.2475 25.4941L84.1354 24.895L84.0753 24.2884L84.7026 24.2897L90.3304 24.2863L90.35 24.6767L90.4263 25.0604L90.558 25.4284L90.7409 25.7734L90.9725 26.0879L91.2473 26.3651L91.56 26.5996L91.903 26.7853L92.2689 26.9188L92.8922 27.0375L93.5228 27.1005L94.1575 27.1073L94.5336 27.0734L94.9029 26.9927L95.2594 26.8666L95.597 26.6965L95.911 26.4857L96.125 26.2838L96.2979 26.0459L96.4242 25.7795L96.4991 25.4941L96.52 25.2007L96.487 24.9072L96.3999 24.6259L96.2628 24.365L96.0798 24.1345L95.8577 23.942L95.6038 23.7936L94.7571 23.4445L93.8928 23.1416L93.0144 22.884L92.1231 22.6732L91.0097 22.3912L89.9084 22.0632L89.3669 21.87L88.8382 21.6443L88.3237 21.3861L87.8268 21.0967L87.3764 20.8371L86.9524 20.5375L86.5574 20.1993L86.1948 19.8265L85.8687 19.4212L85.5817 18.9874L85.3359 18.5286L85.1327 18.0487L84.9754 17.5526L84.8646 17.0435L84.8005 16.5264L84.785 16.0059L84.8072 15.4711L84.8781 14.9411L84.9976 14.4192L85.1644 13.9115L85.3771 13.4208L85.6337 12.9518L85.9321 12.5085L86.2704 12.0951L86.6445 11.714L87.0523 11.3696Z" fill="white"/>
<path fill-rule="evenodd" clip-rule="evenodd" d="M20.485 9.57828H26.9893L27.4336 12.8202L27.9136 16.0573L28.4302 19.289L28.9825 22.5146L30.6489 16.0397L32.3673 9.57828H37.01L38.7095 15.9319L40.3658 22.297L41.0633 18.0473L41.8168 13.8078L42.6257 9.57828H48.9531L47.2387 16.7392L45.5575 23.9074L43.9093 31.0838H38.2301L34.7015 18.3537L32.9196 24.7167L31.1546 31.0838H25.4998L22.9718 20.3362L20.485 9.57828Z" fill="white"/>
<path fill-rule="evenodd" clip-rule="evenodd" d="M0.00506384 0.00236835L25.9616 0L25.9636 5.80873H16.6539L16.6834 18.4465L16.6717 31.0838H9.13757V5.80873H0L0.00506384 0.00236835Z" fill="white"/>
<path fill-rule="evenodd" clip-rule="evenodd" d="M51.6181 9.57828H58.3094V31.0838H51.6181V9.57828Z" fill="white"/>
<path fill-rule="evenodd" clip-rule="evenodd" d="M53.4216 39.7608L53.0475 39.6245L52.6944 39.4415L52.3669 39.2151L52.0712 38.9488L51.8112 38.6472L51.5918 38.3144L51.4162 37.9558L51.2873 37.579L51.2076 37.1879L51.1772 36.79L51.1981 36.3915L51.269 35.9984L51.3892 35.6181L51.5567 35.2562L51.822 34.8726L52.1313 34.5229L52.4783 34.2124L52.8605 33.9454L53.2704 33.7244L53.7038 33.5536L54.1542 33.4357L54.6154 33.3713L55.0806 33.3618L55.5438 33.4072L55.9982 33.5075L56.4384 33.66L56.8571 33.864L57.2494 34.1155L57.5843 34.3534L57.884 34.634L58.144 34.9526L58.3587 35.303L58.5241 35.6798L58.6376 36.0756L58.697 36.4823L58.701 36.8944L58.6497 37.3024L58.5444 37.7003L58.3864 38.0805L58.1791 38.4357L57.9259 38.759L57.641 39.0491L57.3256 39.3046L56.9826 39.5215L56.6174 39.6984L56.2345 39.8319L55.8388 39.9207L55.354 39.9844L54.8645 40L54.377 39.9675L53.8942 39.8875L53.4216 39.7608Z" fill="white"/>
<path d="M139.586 9.875L142.383 2.625H144.906L141.008 11.7969C140.872 12.1094 140.716 12.4089 140.539 12.6953C140.367 12.9766 140.161 13.2292 139.922 13.4531C139.682 13.6719 139.396 13.8464 139.062 13.9766C138.729 14.1016 138.331 14.1641 137.867 14.1641C137.753 14.1641 137.612 14.1615 137.445 14.1562C137.279 14.151 137.146 14.1432 137.047 14.1328L137.031 12.3047C137.094 12.3203 137.193 12.3307 137.328 12.3359C137.464 12.3359 137.562 12.3359 137.625 12.3359C137.932 12.3359 138.174 12.2917 138.352 12.2031C138.529 12.1146 138.669 11.9896 138.773 11.8281C138.883 11.6615 138.979 11.4661 139.062 11.2422L139.586 9.875ZM137.734 2.625L140.328 8.25781L141.055 10.8438L139.312 10.875L135.219 2.625H137.734ZM147.695 5.54688V14H145.445V5.54688H147.695ZM153.188 5.54688L149.547 10.8359H147.297L147.023 8.75781H148.516L150.336 5.54688H153.188ZM150.438 14L148.359 10.4297L150.32 9.34375L153.453 14H150.438ZM156.547 7.17188V17.25H154.297V5.54688H156.383L156.547 7.17188ZM161.898 9.67969V9.84375C161.898 10.4583 161.826 11.0286 161.68 11.5547C161.539 12.0807 161.331 12.5391 161.055 12.9297C160.779 13.3151 160.435 13.6172 160.023 13.8359C159.617 14.0495 159.148 14.1562 158.617 14.1562C158.102 14.1562 157.654 14.0521 157.273 13.8438C156.893 13.6354 156.573 13.3438 156.312 12.9688C156.057 12.5885 155.852 12.1484 155.695 11.6484C155.539 11.1484 155.419 10.612 155.336 10.0391V9.60938C155.419 8.99479 155.539 8.43229 155.695 7.92188C155.852 7.40625 156.057 6.96094 156.312 6.58594C156.573 6.20573 156.891 5.91146 157.266 5.70312C157.646 5.49479 158.091 5.39062 158.602 5.39062C159.138 5.39062 159.609 5.49219 160.016 5.69531C160.427 5.89844 160.771 6.1901 161.047 6.57031C161.328 6.95052 161.539 7.40365 161.68 7.92969C161.826 8.45573 161.898 9.03906 161.898 9.67969ZM159.641 9.84375V9.67969C159.641 9.32031 159.609 8.98958 159.547 8.6875C159.49 8.38021 159.396 8.11198 159.266 7.88281C159.141 7.65365 158.974 7.47656 158.766 7.35156C158.562 7.22135 158.315 7.15625 158.023 7.15625C157.716 7.15625 157.453 7.20573 157.234 7.30469C157.021 7.40365 156.846 7.54688 156.711 7.73438C156.576 7.92188 156.474 8.14583 156.406 8.40625C156.339 8.66667 156.297 8.96094 156.281 9.28906V10.375C156.307 10.7604 156.38 11.1068 156.5 11.4141C156.62 11.7161 156.805 11.9557 157.055 12.1328C157.305 12.3099 157.633 12.3984 158.039 12.3984C158.336 12.3984 158.586 12.3333 158.789 12.2031C158.992 12.0677 159.156 11.8828 159.281 11.6484C159.411 11.4141 159.503 11.1432 159.555 10.8359C159.612 10.5286 159.641 10.1979 159.641 9.84375ZM167.859 12.0938V8.32812C167.859 8.05729 167.815 7.82552 167.727 7.63281C167.638 7.4349 167.5 7.28125 167.312 7.17188C167.13 7.0625 166.893 7.00781 166.602 7.00781C166.352 7.00781 166.135 7.05208 165.953 7.14062C165.771 7.22396 165.63 7.34635 165.531 7.50781C165.432 7.66406 165.383 7.84896 165.383 8.0625H163.133C163.133 7.70312 163.216 7.36198 163.383 7.03906C163.549 6.71615 163.792 6.43229 164.109 6.1875C164.427 5.9375 164.805 5.74219 165.242 5.60156C165.685 5.46094 166.18 5.39062 166.727 5.39062C167.383 5.39062 167.966 5.5 168.477 5.71875C168.987 5.9375 169.388 6.26562 169.68 6.70312C169.977 7.14062 170.125 7.6875 170.125 8.34375V11.9609C170.125 12.4245 170.154 12.8047 170.211 13.1016C170.268 13.3932 170.352 13.6484 170.461 13.8672V14H168.188C168.078 13.7708 167.995 13.4844 167.938 13.1406C167.885 12.7917 167.859 12.4427 167.859 12.0938ZM168.156 8.85156L168.172 10.125H166.914C166.617 10.125 166.359 10.1589 166.141 10.2266C165.922 10.2943 165.742 10.3906 165.602 10.5156C165.461 10.6354 165.357 10.776 165.289 10.9375C165.227 11.099 165.195 11.276 165.195 11.4688C165.195 11.6615 165.24 11.8359 165.328 11.9922C165.417 12.1432 165.544 12.263 165.711 12.3516C165.878 12.4349 166.073 12.4766 166.297 12.4766C166.635 12.4766 166.93 12.4089 167.18 12.2734C167.43 12.138 167.622 11.9714 167.758 11.7734C167.898 11.5755 167.971 11.388 167.977 11.2109L168.57 12.1641C168.487 12.3776 168.372 12.599 168.227 12.8281C168.086 13.0573 167.906 13.2734 167.688 13.4766C167.469 13.6745 167.206 13.8385 166.898 13.9688C166.591 14.0938 166.227 14.1562 165.805 14.1562C165.268 14.1562 164.781 14.0495 164.344 13.8359C163.911 13.6172 163.568 13.3177 163.312 12.9375C163.062 12.5521 162.938 12.1146 162.938 11.625C162.938 11.1823 163.021 10.7891 163.188 10.4453C163.354 10.1016 163.599 9.8125 163.922 9.57812C164.25 9.33854 164.659 9.15885 165.148 9.03906C165.638 8.91406 166.206 8.85156 166.852 8.85156H168.156ZM174.289 5.54688V14H172.031V5.54688H174.289ZM170.172 3.4375C170.172 3.16667 170.276 2.9375 170.484 2.75C170.688 2.55729 170.94 2.46094 171.242 2.46094C171.555 2.46094 171.812 2.55729 172.016 2.75C172.219 2.9375 172.32 3.16667 172.32 3.4375C172.32 3.70833 172.219 3.9375 172.016 4.125C171.812 4.3125 171.555 4.40625 171.242 4.40625C170.94 4.40625 170.688 4.3125 170.484 4.125C170.276 3.9375 170.172 3.70833 170.172 3.4375ZM174.008 3.44531C174.008 3.16927 174.109 2.9375 174.312 2.75C174.516 2.5625 174.771 2.46875 175.078 2.46875C175.385 2.46875 175.641 2.5625 175.844 2.75C176.052 2.9375 176.156 3.16927 176.156 3.44531C176.156 3.71615 176.052 3.94531 175.844 4.13281C175.641 4.3151 175.385 4.40625 175.078 4.40625C174.771 4.40625 174.516 4.3151 174.312 4.13281C174.109 3.94531 174.008 3.71615 174.008 3.44531ZM182.023 8.96094V10.7109H177.727V8.96094H182.023ZM178.477 5.54688V14H176.227V5.54688H178.477ZM183.547 5.54688V14H181.289V5.54688H183.547ZM188.789 12.3984C189.065 12.3984 189.31 12.3464 189.523 12.2422C189.737 12.1328 189.904 11.9818 190.023 11.7891C190.148 11.5911 190.214 11.3594 190.219 11.0938H192.336C192.331 11.6875 192.172 12.2161 191.859 12.6797C191.547 13.138 191.128 13.5 190.602 13.7656C190.076 14.026 189.487 14.1562 188.836 14.1562C188.18 14.1562 187.607 14.0469 187.117 13.8281C186.633 13.6094 186.229 13.3073 185.906 12.9219C185.583 12.5312 185.341 12.0781 185.18 11.5625C185.018 11.0417 184.938 10.4844 184.938 9.89062V9.66406C184.938 9.0651 185.018 8.50781 185.18 7.99219C185.341 7.47135 185.583 7.01823 185.906 6.63281C186.229 6.24219 186.633 5.9375 187.117 5.71875C187.602 5.5 188.169 5.39062 188.82 5.39062C189.513 5.39062 190.12 5.52344 190.641 5.78906C191.167 6.05469 191.578 6.4349 191.875 6.92969C192.177 7.41927 192.331 8 192.336 8.67188H190.219C190.214 8.39062 190.154 8.13542 190.039 7.90625C189.93 7.67708 189.768 7.49479 189.555 7.35938C189.346 7.21875 189.089 7.14844 188.781 7.14844C188.453 7.14844 188.185 7.21875 187.977 7.35938C187.768 7.49479 187.607 7.68229 187.492 7.92188C187.378 8.15625 187.297 8.42448 187.25 8.72656C187.208 9.02344 187.188 9.33594 187.188 9.66406V9.89062C187.188 10.2188 187.208 10.5339 187.25 10.8359C187.292 11.138 187.37 11.4062 187.484 11.6406C187.604 11.875 187.768 12.0599 187.977 12.1953C188.185 12.3307 188.456 12.3984 188.789 12.3984ZM195.195 8.05469H197.648C198.419 8.05469 199.076 8.18229 199.617 8.4375C200.164 8.6875 200.581 9.03646 200.867 9.48438C201.159 9.93229 201.305 10.4505 201.305 11.0391C201.305 11.4661 201.221 11.862 201.055 12.2266C200.893 12.5859 200.656 12.8984 200.344 13.1641C200.031 13.4297 199.648 13.6354 199.195 13.7812C198.742 13.9271 198.227 14 197.648 14H193.789V5.54688H196.047V12.25H197.648C197.987 12.25 198.258 12.1953 198.461 12.0859C198.669 11.9714 198.82 11.8229 198.914 11.6406C199.013 11.4583 199.062 11.2604 199.062 11.0469C199.062 10.8229 199.013 10.6198 198.914 10.4375C198.82 10.25 198.669 10.099 198.461 9.98438C198.258 9.86979 197.987 9.8125 197.648 9.8125H195.195V8.05469ZM204.977 5.54688V14H202.727V5.54688H204.977ZM210.469 5.54688L206.828 10.8359H204.578L204.305 8.75781H205.797L207.617 5.54688H210.469ZM207.719 14L205.641 10.4297L207.602 9.34375L210.734 14H207.719ZM215.344 14.1562C214.688 14.1562 214.099 14.0521 213.578 13.8438C213.057 13.6302 212.615 13.3359 212.25 12.9609C211.891 12.5859 211.615 12.151 211.422 11.6562C211.229 11.1562 211.133 10.625 211.133 10.0625V9.75C211.133 9.10938 211.224 8.52344 211.406 7.99219C211.589 7.46094 211.849 7 212.188 6.60938C212.531 6.21875 212.948 5.91927 213.438 5.71094C213.927 5.4974 214.479 5.39062 215.094 5.39062C215.693 5.39062 216.224 5.48958 216.688 5.6875C217.151 5.88542 217.539 6.16667 217.852 6.53125C218.169 6.89583 218.409 7.33333 218.57 7.84375C218.732 8.34896 218.812 8.91146 218.812 9.53125V10.4688H212.094V8.96875H216.602V8.79688C216.602 8.48438 216.544 8.20573 216.43 7.96094C216.32 7.71094 216.154 7.51302 215.93 7.36719C215.706 7.22135 215.419 7.14844 215.07 7.14844C214.773 7.14844 214.518 7.21354 214.305 7.34375C214.091 7.47396 213.917 7.65625 213.781 7.89062C213.651 8.125 213.552 8.40104 213.484 8.71875C213.422 9.03125 213.391 9.375 213.391 9.75V10.0625C213.391 10.401 213.438 10.7135 213.531 11C213.63 11.2865 213.768 11.5339 213.945 11.7422C214.128 11.9505 214.346 12.112 214.602 12.2266C214.862 12.3411 215.156 12.3984 215.484 12.3984C215.891 12.3984 216.268 12.3203 216.617 12.1641C216.971 12.0026 217.276 11.7604 217.531 11.4375L218.625 12.625C218.448 12.8802 218.206 13.125 217.898 13.3594C217.596 13.5938 217.232 13.7865 216.805 13.9375C216.378 14.0833 215.891 14.1562 215.344 14.1562ZM141.086 34.5547V30.2031C141.086 29.8698 141.018 29.5807 140.883 29.3359C140.753 29.0859 140.555 28.8932 140.289 28.7578C140.023 28.6224 139.695 28.5547 139.305 28.5547C138.94 28.5547 138.62 28.6172 138.344 28.7422C138.073 28.8672 137.859 29.0312 137.703 29.2344C137.552 29.4375 137.477 29.6562 137.477 29.8906H136.031C136.031 29.5885 136.109 29.2891 136.266 28.9922C136.422 28.6953 136.646 28.4271 136.938 28.1875C137.234 27.9427 137.589 27.75 138 27.6094C138.417 27.4635 138.88 27.3906 139.391 27.3906C140.005 27.3906 140.547 27.4948 141.016 27.7031C141.49 27.9115 141.859 28.2266 142.125 28.6484C142.396 29.0651 142.531 29.5885 142.531 30.2188V34.1562C142.531 34.4375 142.555 34.737 142.602 35.0547C142.654 35.3724 142.729 35.6458 142.828 35.875V36H141.32C141.247 35.8333 141.19 35.612 141.148 35.3359C141.107 35.0547 141.086 34.7943 141.086 34.5547ZM141.336 30.875L141.352 31.8906H139.891C139.479 31.8906 139.112 31.9245 138.789 31.9922C138.466 32.0547 138.195 32.151 137.977 32.2812C137.758 32.4115 137.591 32.5755 137.477 32.7734C137.362 32.9661 137.305 33.1927 137.305 33.4531C137.305 33.7188 137.365 33.9609 137.484 34.1797C137.604 34.3984 137.784 34.5729 138.023 34.7031C138.268 34.8281 138.568 34.8906 138.922 34.8906C139.365 34.8906 139.755 34.7969 140.094 34.6094C140.432 34.4219 140.701 34.1927 140.898 33.9219C141.102 33.651 141.211 33.388 141.227 33.1328L141.844 33.8281C141.807 34.0469 141.708 34.2891 141.547 34.5547C141.385 34.8203 141.169 35.0755 140.898 35.3203C140.633 35.5599 140.315 35.7604 139.945 35.9219C139.581 36.0781 139.169 36.1562 138.711 36.1562C138.138 36.1562 137.635 36.0443 137.203 35.8203C136.776 35.5964 136.443 35.2969 136.203 34.9219C135.969 34.5417 135.852 34.1172 135.852 33.6484C135.852 33.1953 135.94 32.7969 136.117 32.4531C136.294 32.1042 136.549 31.8151 136.883 31.5859C137.216 31.3516 137.617 31.1745 138.086 31.0547C138.555 30.9349 139.078 30.875 139.656 30.875H141.336ZM146.25 29.1719V39.25H144.797V27.5469H146.125L146.25 29.1719ZM151.945 31.7031V31.8672C151.945 32.4818 151.872 33.0521 151.727 33.5781C151.581 34.099 151.367 34.5521 151.086 34.9375C150.81 35.3229 150.469 35.6224 150.062 35.8359C149.656 36.0495 149.19 36.1562 148.664 36.1562C148.128 36.1562 147.654 36.0677 147.242 35.8906C146.831 35.7135 146.482 35.4557 146.195 35.1172C145.909 34.7786 145.68 34.3724 145.508 33.8984C145.341 33.4245 145.227 32.8906 145.164 32.2969V31.4219C145.227 30.7969 145.344 30.237 145.516 29.7422C145.688 29.2474 145.914 28.8255 146.195 28.4766C146.482 28.1224 146.828 27.8542 147.234 27.6719C147.641 27.4844 148.109 27.3906 148.641 27.3906C149.172 27.3906 149.643 27.4948 150.055 27.7031C150.466 27.9062 150.812 28.1979 151.094 28.5781C151.375 28.9583 151.586 29.4141 151.727 29.9453C151.872 30.4714 151.945 31.0573 151.945 31.7031ZM150.492 31.8672V31.7031C150.492 31.2812 150.448 30.8854 150.359 30.5156C150.271 30.1406 150.133 29.8125 149.945 29.5312C149.763 29.2448 149.529 29.0208 149.242 28.8594C148.956 28.6927 148.615 28.6094 148.219 28.6094C147.854 28.6094 147.536 28.6719 147.266 28.7969C147 28.9219 146.773 29.0911 146.586 29.3047C146.398 29.513 146.245 29.7526 146.125 30.0234C146.01 30.2891 145.924 30.5651 145.867 30.8516V32.875C145.971 33.2396 146.117 33.5833 146.305 33.9062C146.492 34.224 146.742 34.4818 147.055 34.6797C147.367 34.8724 147.76 34.9688 148.234 34.9688C148.625 34.9688 148.961 34.888 149.242 34.7266C149.529 34.5599 149.763 34.3333 149.945 34.0469C150.133 33.7604 150.271 33.4323 150.359 33.0625C150.448 32.6875 150.492 32.2891 150.492 31.8672ZM154.641 27.5469L156.492 30.625L158.367 27.5469H160.062L157.297 31.7188L160.148 36H158.477L156.523 32.8281L154.57 36H152.891L155.734 31.7188L152.977 27.5469H154.641ZM163.172 27.5469V36H161.719V27.5469H163.172ZM161.609 25.3047C161.609 25.0703 161.68 24.8724 161.82 24.7109C161.966 24.5495 162.18 24.4688 162.461 24.4688C162.737 24.4688 162.948 24.5495 163.094 24.7109C163.245 24.8724 163.32 25.0703 163.32 25.3047C163.32 25.5286 163.245 25.7214 163.094 25.8828C162.948 26.0391 162.737 26.1172 162.461 26.1172C162.18 26.1172 161.966 26.0391 161.82 25.8828C161.68 25.7214 161.609 25.5286 161.609 25.3047ZM168.938 27.5469V36H167.484V27.5469H168.938ZM171.773 27.5469V28.7188H164.703V27.5469H171.773ZM176.078 36.1562C175.49 36.1562 174.956 36.0573 174.477 35.8594C174.003 35.6562 173.594 35.3724 173.25 35.0078C172.911 34.6432 172.651 34.2109 172.469 33.7109C172.286 33.2109 172.195 32.6641 172.195 32.0703V31.7422C172.195 31.0547 172.297 30.4427 172.5 29.9062C172.703 29.3646 172.979 28.9062 173.328 28.5312C173.677 28.1562 174.073 27.8724 174.516 27.6797C174.958 27.487 175.417 27.3906 175.891 27.3906C176.495 27.3906 177.016 27.4948 177.453 27.7031C177.896 27.9115 178.258 28.2031 178.539 28.5781C178.82 28.9479 179.029 29.3854 179.164 29.8906C179.299 30.3906 179.367 30.9375 179.367 31.5312V32.1797H173.055V31H177.922V30.8906C177.901 30.5156 177.823 30.151 177.688 29.7969C177.557 29.4427 177.349 29.151 177.062 28.9219C176.776 28.6927 176.385 28.5781 175.891 28.5781C175.562 28.5781 175.26 28.6484 174.984 28.7891C174.708 28.9245 174.471 29.1276 174.273 29.3984C174.076 29.6693 173.922 30 173.812 30.3906C173.703 30.7812 173.648 31.2318 173.648 31.7422V32.0703C173.648 32.4714 173.703 32.849 173.812 33.2031C173.927 33.5521 174.091 33.8594 174.305 34.125C174.523 34.3906 174.786 34.599 175.094 34.75C175.406 34.901 175.76 34.9766 176.156 34.9766C176.667 34.9766 177.099 34.8724 177.453 34.6641C177.807 34.4557 178.117 34.1771 178.383 33.8281L179.258 34.5234C179.076 34.7995 178.844 35.0625 178.562 35.3125C178.281 35.5625 177.935 35.7656 177.523 35.9219C177.117 36.0781 176.635 36.1562 176.078 36.1562ZM182.625 27.5469V36H181.18V27.5469H182.625ZM188.172 27.5469L184.164 32.3906H182.141L181.922 31.125H183.578L186.414 27.5469H188.172ZM186.617 36L183.508 32.1719L184.438 31.125L188.453 36H186.617ZM193.156 27.5469V36H191.703V27.5469H193.156ZM195.992 27.5469V28.7188H188.922V27.5469H195.992ZM199.883 35.125L202.234 27.5469H203.781L200.391 37.3047C200.312 37.513 200.208 37.737 200.078 37.9766C199.953 38.2214 199.792 38.4531 199.594 38.6719C199.396 38.8906 199.156 39.0677 198.875 39.2031C198.599 39.3438 198.268 39.4141 197.883 39.4141C197.768 39.4141 197.622 39.3984 197.445 39.3672C197.268 39.3359 197.143 39.3099 197.07 39.2891L197.062 38.1172C197.104 38.1224 197.169 38.1276 197.258 38.1328C197.352 38.1432 197.417 38.1484 197.453 38.1484C197.781 38.1484 198.06 38.1042 198.289 38.0156C198.518 37.9323 198.711 37.7891 198.867 37.5859C199.029 37.388 199.167 37.1146 199.281 36.7656L199.883 35.125ZM198.156 27.5469L200.352 34.1094L200.727 35.6328L199.688 36.1641L196.578 27.5469H198.156ZM206.531 29.1719V39.25H205.078V27.5469H206.406L206.531 29.1719ZM212.227 31.7031V31.8672C212.227 32.4818 212.154 33.0521 212.008 33.5781C211.862 34.099 211.648 34.5521 211.367 34.9375C211.091 35.3229 210.75 35.6224 210.344 35.8359C209.938 36.0495 209.471 36.1562 208.945 36.1562C208.409 36.1562 207.935 36.0677 207.523 35.8906C207.112 35.7135 206.763 35.4557 206.477 35.1172C206.19 34.7786 205.961 34.3724 205.789 33.8984C205.622 33.4245 205.508 32.8906 205.445 32.2969V31.4219C205.508 30.7969 205.625 30.237 205.797 29.7422C205.969 29.2474 206.195 28.8255 206.477 28.4766C206.763 28.1224 207.109 27.8542 207.516 27.6719C207.922 27.4844 208.391 27.3906 208.922 27.3906C209.453 27.3906 209.924 27.4948 210.336 27.7031C210.747 27.9062 211.094 28.1979 211.375 28.5781C211.656 28.9583 211.867 29.4141 212.008 29.9453C212.154 30.4714 212.227 31.0573 212.227 31.7031ZM210.773 31.8672V31.7031C210.773 31.2812 210.729 30.8854 210.641 30.5156C210.552 30.1406 210.414 29.8125 210.227 29.5312C210.044 29.2448 209.81 29.0208 209.523 28.8594C209.237 28.6927 208.896 28.6094 208.5 28.6094C208.135 28.6094 207.818 28.6719 207.547 28.7969C207.281 28.9219 207.055 29.0911 206.867 29.3047C206.68 29.513 206.526 29.7526 206.406 30.0234C206.292 30.2891 206.206 30.5651 206.148 30.8516V32.875C206.253 33.2396 206.398 33.5833 206.586 33.9062C206.773 34.224 207.023 34.4818 207.336 34.6797C207.648 34.8724 208.042 34.9688 208.516 34.9688C208.906 34.9688 209.242 34.888 209.523 34.7266C209.81 34.5599 210.044 34.3333 210.227 34.0469C210.414 33.7604 210.552 33.4323 210.641 33.0625C210.729 32.6875 210.773 32.2891 210.773 31.8672ZM219.805 31.2109V32.3828H215.336V31.2109H219.805ZM215.641 27.5469V36H214.195V27.5469H215.641ZM220.977 27.5469V36H219.523V27.5469H220.977ZM226.812 36.1562C226.224 36.1562 225.69 36.0573 225.211 35.8594C224.737 35.6562 224.328 35.3724 223.984 35.0078C223.646 34.6432 223.385 34.2109 223.203 33.7109C223.021 33.2109 222.93 32.6641 222.93 32.0703V31.7422C222.93 31.0547 223.031 30.4427 223.234 29.9062C223.438 29.3646 223.714 28.9062 224.062 28.5312C224.411 28.1562 224.807 27.8724 225.25 27.6797C225.693 27.487 226.151 27.3906 226.625 27.3906C227.229 27.3906 227.75 27.4948 228.188 27.7031C228.63 27.9115 228.992 28.2031 229.273 28.5781C229.555 28.9479 229.763 29.3854 229.898 29.8906C230.034 30.3906 230.102 30.9375 230.102 31.5312V32.1797H223.789V31H228.656V30.8906C228.635 30.5156 228.557 30.151 228.422 29.7969C228.292 29.4427 228.083 29.151 227.797 28.9219C227.51 28.6927 227.12 28.5781 226.625 28.5781C226.297 28.5781 225.995 28.6484 225.719 28.7891C225.443 28.9245 225.206 29.1276 225.008 29.3984C224.81 29.6693 224.656 30 224.547 30.3906C224.438 30.7812 224.383 31.2318 224.383 31.7422V32.0703C224.383 32.4714 224.438 32.849 224.547 33.2031C224.661 33.5521 224.826 33.8594 225.039 34.125C225.258 34.3906 225.521 34.599 225.828 34.75C226.141 34.901 226.495 34.9766 226.891 34.9766C227.401 34.9766 227.833 34.8724 228.188 34.6641C228.542 34.4557 228.852 34.1771 229.117 33.8281L229.992 34.5234C229.81 34.7995 229.578 35.0625 229.297 35.3125C229.016 35.5625 228.669 35.7656 228.258 35.9219C227.852 36.0781 227.37 36.1562 226.812 36.1562ZM241.18 23.8672H242.367C242.367 24.3776 242.289 24.7839 242.133 25.0859C241.977 25.3828 241.763 25.612 241.492 25.7734C241.227 25.9349 240.924 26.0573 240.586 26.1406C240.253 26.224 239.906 26.3047 239.547 26.3828C239.099 26.4766 238.682 26.625 238.297 26.8281C237.917 27.026 237.589 27.3073 237.312 27.6719C237.042 28.0365 236.841 28.5104 236.711 29.0938C236.586 29.6771 236.552 30.3984 236.609 31.2578V31.9766H235.422V31.2578C235.422 30.2943 235.513 29.4531 235.695 28.7344C235.883 28.0156 236.146 27.4089 236.484 26.9141C236.823 26.4193 237.224 26.026 237.688 25.7344C238.156 25.4427 238.672 25.2422 239.234 25.1328C239.641 25.0547 239.99 24.9714 240.281 24.8828C240.573 24.7891 240.794 24.6641 240.945 24.5078C241.102 24.3516 241.18 24.138 241.18 23.8672ZM239.469 28.0312C240.021 28.0312 240.513 28.1276 240.945 28.3203C241.378 28.513 241.745 28.7812 242.047 29.125C242.349 29.4688 242.578 29.875 242.734 30.3438C242.896 30.8073 242.977 31.3125 242.977 31.8594V32.0312C242.977 32.6198 242.891 33.1667 242.719 33.6719C242.552 34.1719 242.305 34.6094 241.977 34.9844C241.654 35.3542 241.258 35.6432 240.789 35.8516C240.326 36.0599 239.797 36.1641 239.203 36.1641C238.609 36.1641 238.078 36.0599 237.609 35.8516C237.146 35.6432 236.75 35.3542 236.422 34.9844C236.094 34.6094 235.844 34.1719 235.672 33.6719C235.505 33.1667 235.422 32.6198 235.422 32.0312V31.8594C235.422 31.7292 235.445 31.6016 235.492 31.4766C235.539 31.3516 235.596 31.224 235.664 31.0938C235.737 30.9635 235.802 30.8255 235.859 30.6797C236.052 30.2109 236.315 29.776 236.648 29.375C236.987 28.974 237.391 28.651 237.859 28.4062C238.333 28.1562 238.87 28.0312 239.469 28.0312ZM239.188 29.2109C238.656 29.2109 238.219 29.3333 237.875 29.5781C237.536 29.8229 237.284 30.1484 237.117 30.5547C236.951 30.9557 236.867 31.3906 236.867 31.8594V32.0312C236.867 32.4271 236.914 32.8021 237.008 33.1562C237.102 33.5104 237.242 33.8255 237.43 34.1016C237.622 34.3724 237.865 34.5859 238.156 34.7422C238.453 34.8984 238.802 34.9766 239.203 34.9766C239.604 34.9766 239.951 34.8984 240.242 34.7422C240.534 34.5859 240.773 34.3724 240.961 34.1016C241.148 33.8255 241.289 33.5104 241.383 33.1562C241.477 32.8021 241.523 32.4271 241.523 32.0312V31.8594C241.523 31.5052 241.477 31.1693 241.383 30.8516C241.289 30.5339 241.146 30.2526 240.953 30.0078C240.766 29.763 240.523 29.5703 240.227 29.4297C239.935 29.2839 239.589 29.2109 239.188 29.2109ZM249.289 31.1328V32.3125H244.797V31.1328H249.289ZM246.055 27.5469V36H244.609V27.5469H246.055ZM248.055 31.8672V31.6875C248.055 31.0781 248.143 30.513 248.32 29.9922C248.497 29.4661 248.753 29.0104 249.086 28.625C249.424 28.2344 249.828 27.9323 250.297 27.7188C250.771 27.5 251.302 27.3906 251.891 27.3906C252.49 27.3906 253.026 27.5 253.5 27.7188C253.974 27.9323 254.378 28.2344 254.711 28.625C255.049 29.0104 255.307 29.4661 255.484 29.9922C255.661 30.513 255.75 31.0781 255.75 31.6875V31.8672C255.75 32.4766 255.661 33.0417 255.484 33.5625C255.307 34.0833 255.052 34.5391 254.719 34.9297C254.385 35.3151 253.982 35.6172 253.508 35.8359C253.034 36.0495 252.5 36.1562 251.906 36.1562C251.312 36.1562 250.779 36.0495 250.305 35.8359C249.831 35.6172 249.424 35.3151 249.086 34.9297C248.753 34.5391 248.497 34.0833 248.32 33.5625C248.143 33.0417 248.055 32.4766 248.055 31.8672ZM249.508 31.6875V31.8672C249.508 32.2891 249.557 32.6875 249.656 33.0625C249.755 33.4323 249.904 33.7604 250.102 34.0469C250.305 34.3333 250.555 34.5599 250.852 34.7266C251.154 34.888 251.505 34.9688 251.906 34.9688C252.307 34.9688 252.656 34.888 252.953 34.7266C253.255 34.5599 253.505 34.3333 253.703 34.0469C253.901 33.7604 254.049 33.4323 254.148 33.0625C254.253 32.6875 254.305 32.2891 254.305 31.8672V31.6875C254.305 31.2708 254.253 30.8776 254.148 30.5078C254.049 30.1328 253.898 29.8021 253.695 29.5156C253.497 29.224 253.247 28.9948 252.945 28.8281C252.643 28.6615 252.292 28.5781 251.891 28.5781C251.495 28.5781 251.148 28.6615 250.852 28.8281C250.555 28.9948 250.305 29.224 250.102 29.5156C249.904 29.8021 249.755 30.1328 249.656 30.5078C249.557 30.8776 249.508 31.2708 249.508 31.6875ZM258.984 29.1719V39.25H257.531V27.5469H258.859L258.984 29.1719ZM264.68 31.7031V31.8672C264.68 32.4818 264.607 33.0521 264.461 33.5781C264.315 34.099 264.102 34.5521 263.82 34.9375C263.544 35.3229 263.203 35.6224 262.797 35.8359C262.391 36.0495 261.924 36.1562 261.398 36.1562C260.862 36.1562 260.388 36.0677 259.977 35.8906C259.565 35.7135 259.216 35.4557 258.93 35.1172C258.643 34.7786 258.414 34.3724 258.242 33.8984C258.076 33.4245 257.961 32.8906 257.898 32.2969V31.4219C257.961 30.7969 258.078 30.237 258.25 29.7422C258.422 29.2474 258.648 28.8255 258.93 28.4766C259.216 28.1224 259.562 27.8542 259.969 27.6719C260.375 27.4844 260.844 27.3906 261.375 27.3906C261.906 27.3906 262.378 27.4948 262.789 27.7031C263.201 27.9062 263.547 28.1979 263.828 28.5781C264.109 28.9583 264.32 29.4141 264.461 29.9453C264.607 30.4714 264.68 31.0573 264.68 31.7031ZM263.227 31.8672V31.7031C263.227 31.2812 263.182 30.8854 263.094 30.5156C263.005 30.1406 262.867 29.8125 262.68 29.5312C262.497 29.2448 262.263 29.0208 261.977 28.8594C261.69 28.6927 261.349 28.6094 260.953 28.6094C260.589 28.6094 260.271 28.6719 260 28.7969C259.734 28.9219 259.508 29.0911 259.32 29.3047C259.133 29.513 258.979 29.7526 258.859 30.0234C258.745 30.2891 258.659 30.5651 258.602 30.8516V32.875C258.706 33.2396 258.852 33.5833 259.039 33.9062C259.227 34.224 259.477 34.4818 259.789 34.6797C260.102 34.8724 260.495 34.9688 260.969 34.9688C261.359 34.9688 261.695 34.888 261.977 34.7266C262.263 34.5599 262.497 34.3333 262.68 34.0469C262.867 33.7604 263.005 33.4323 263.094 33.0625C263.182 32.6875 263.227 32.2891 263.227 31.8672ZM266.141 31.8672V31.6875C266.141 31.0781 266.229 30.513 266.406 29.9922C266.583 29.4661 266.839 29.0104 267.172 28.625C267.505 28.2344 267.909 27.9323 268.383 27.7188C268.857 27.5 269.388 27.3906 269.977 27.3906C270.57 27.3906 271.104 27.5 271.578 27.7188C272.057 27.9323 272.464 28.2344 272.797 28.625C273.135 29.0104 273.393 29.4661 273.57 29.9922C273.747 30.513 273.836 31.0781 273.836 31.6875V31.8672C273.836 32.4766 273.747 33.0417 273.57 33.5625C273.393 34.0833 273.135 34.5391 272.797 34.9297C272.464 35.3151 272.06 35.6172 271.586 35.8359C271.117 36.0495 270.586 36.1562 269.992 36.1562C269.398 36.1562 268.865 36.0495 268.391 35.8359C267.917 35.6172 267.51 35.3151 267.172 34.9297C266.839 34.5391 266.583 34.0833 266.406 33.5625C266.229 33.0417 266.141 32.4766 266.141 31.8672ZM267.586 31.6875V31.8672C267.586 32.2891 267.635 32.6875 267.734 33.0625C267.833 33.4323 267.982 33.7604 268.18 34.0469C268.383 34.3333 268.635 34.5599 268.938 34.7266C269.24 34.888 269.591 34.9688 269.992 34.9688C270.388 34.9688 270.734 34.888 271.031 34.7266C271.333 34.5599 271.583 34.3333 271.781 34.0469C271.979 33.7604 272.128 33.4323 272.227 33.0625C272.331 32.6875 272.383 32.2891 272.383 31.8672V31.6875C272.383 31.2708 272.331 30.8776 272.227 30.5078C272.128 30.1328 271.977 29.8021 271.773 29.5156C271.576 29.224 271.326 28.9948 271.023 28.8281C270.727 28.6615 270.378 28.5781 269.977 28.5781C269.581 28.5781 269.232 28.6615 268.93 28.8281C268.633 28.9948 268.383 29.224 268.18 29.5156C267.982 29.8021 267.833 30.1328 267.734 30.5078C267.635 30.8776 267.586 31.2708 267.586 31.6875Z" fill="white"/>
<line x1="121" y1="8.74228e-08" x2="121" y2="20" stroke="#3860AE" stroke-width="4"/>
<line x1="121" y1="20" x2="121" y2="40" stroke="#FFEE51" stroke-width="4"/>
</svg>
