<svg width="103" height="40" viewBox="0 0 103 40" fill="none" xmlns="http://www.w3.org/2000/svg">
<path fill-rule="evenodd" clip-rule="evenodd" d="M53.4216 0.887051L53.8942 0.760437L54.377 0.680596L54.8645 0.648333L55.354 0.663924L55.8388 0.727161L56.2345 0.816016L56.6174 0.94961L56.9826 1.12631L57.3256 1.34374L57.641 1.59906L57.9259 1.88888L58.1791 2.21272L58.3864 2.56781L58.5444 2.94765L58.6497 3.34544L58.701 3.75387L58.697 4.16548L58.6376 4.57276L58.5241 4.96832L58.3587 5.34489L58.144 5.69571L57.884 6.01434L57.5843 6.29488L57.2494 6.53237L56.8571 6.7841L56.4384 6.98784L55.9982 7.14075L55.5438 7.24065L55.0806 7.2862L54.6154 7.27678L54.1542 7.21246L53.7038 7.09418L53.2704 6.92358L52.8605 6.70303L52.4783 6.43558L52.1313 6.12489L51.822 5.77535L51.5567 5.39179L51.3892 5.02979L51.269 4.64942L51.1981 4.25678L51.1772 3.85825L51.2076 3.46032L51.2873 3.06944L51.4162 2.69192L51.5918 2.33391L51.8112 2.00126L52.0712 1.69923L52.3669 1.4328L52.6944 1.20635L53.0475 1.02342L53.4216 0.887051Z" fill="white"/>
<path fill-rule="evenodd" clip-rule="evenodd" d="M62.0582 9.57825H68.5334L68.5402 12.0103L68.9851 11.5303L69.4699 11.0902L69.9905 10.6933L70.5428 10.3425L71.1228 10.0402L71.7271 9.78884L72.3497 9.59018L72.9871 9.44561L73.6346 9.35628L74.2875 9.32273L74.852 9.30727L75.4165 9.33093L75.9776 9.39363L76.5326 9.49495L77.0802 9.63444L77.5245 9.78423L77.9532 9.9736L78.3637 10.2011L78.752 10.4648L79.1146 10.7626L79.4495 11.0921L79.7925 11.5146L80.101 11.9635L80.3731 12.4352L80.6061 12.928L80.7992 13.4377L80.9511 13.9616L81.126 14.7634L81.255 15.5741L81.3367 16.3908L81.3718 17.2109L81.3812 24.1473L81.3643 31.0838H74.6379L74.64 17.1987L74.6265 16.8191L74.5684 16.4436L74.4678 16.0777L74.3253 15.7259L74.1781 15.4636L73.9911 15.2284L73.7689 15.0257L73.5178 14.861L73.2443 14.7383L72.7514 14.6014L72.247 14.5187L71.7366 14.491L71.2261 14.5187L70.7217 14.6021L70.374 14.6936L70.0411 14.8285L69.7278 15.0061L69.4409 15.2223L69.1836 15.4737L68.9601 15.7564L68.7758 16.0654L68.7522 21.0716L68.7576 26.0777L68.7927 31.0838H62.0582V9.57825Z" fill="white"/>
<path fill-rule="evenodd" clip-rule="evenodd" d="M87.0523 11.3696L87.6215 10.9598L88.2177 10.5917L88.8382 10.267L89.4803 9.98749L90.1407 9.75454L90.8159 9.5693L91.5026 9.43266L92.1974 9.34535L92.8962 9.30787L93.5957 9.32041L94.3574 9.3051L95.1183 9.3436L95.8746 9.43557L96.6227 9.58068L97.3587 9.77812L98.0791 10.027L98.7806 10.326L99.4585 10.6738L100.111 11.0685L100.735 11.5082L101.143 11.8707L101.518 12.2679L101.856 12.6976L102.154 13.1558L102.41 13.639L102.622 14.1433L102.788 14.6645L102.907 15.1986L102.978 15.7408L103 16.2878L102.864 16.2899L100.669 16.3203L98.4714 16.3143L96.2756 16.2715L96.2574 15.9381L96.2047 15.6087L96.1196 15.2861L96.0022 14.9736L95.8806 14.7384L95.728 14.5229L95.5457 14.3311L95.3391 14.1664L95.1109 14.0335L94.7604 13.9034L94.3992 13.8098L94.0306 13.7529L93.6578 13.7339L93.2845 13.7529L92.9178 13.8085L92.5613 13.9142L92.2223 14.0667L91.907 14.264L91.6214 14.5019L91.4276 14.7052L91.2717 14.939L91.1589 15.1959L91.0921 15.4691L91.0731 15.7497L91.1029 16.0296L91.1812 16.2993L91.3041 16.5522L91.4695 16.7792L91.6714 16.9744L92.0171 17.2177L92.3844 17.4285L92.7686 17.6041L93.1676 17.7444L93.9914 17.9626L94.8259 18.1307L95.8469 18.3422L96.8151 18.5787L97.7698 18.8654L98.7091 19.2002L99.258 19.4354L99.788 19.7113L100.296 20.0251L100.781 20.3762L101.237 20.7619L101.606 21.1611L101.937 21.5935L102.224 22.0557L102.468 22.5424L102.665 23.0501L102.814 23.574L102.912 24.1094L102.961 24.6523L102.958 25.1973L102.905 25.7395L102.801 26.2743L102.648 26.7968L102.445 27.2679L102.205 27.7213L101.928 28.1524L101.617 28.5597L101.272 28.94L100.899 29.2897L100.497 29.6083L99.9028 30.0122L99.2783 30.3688L98.6274 30.6738L97.9549 30.9266L97.2641 31.1245L96.4822 31.3217L95.6889 31.4695L94.8887 31.5657L94.0832 31.6111L93.277 31.605L92.4729 31.5481L91.6734 31.4397L90.8827 31.2804L90.1035 31.0716L89.3392 30.8134L88.5931 30.507L87.8673 30.1539L87.3399 29.8516L86.8403 29.5046L86.373 29.1155L85.9402 28.6878L85.5466 28.2236L85.1941 27.7274L84.8862 27.2022L84.6243 26.6518L84.4109 26.0811L84.2475 25.4941L84.1354 24.895L84.0753 24.2884L84.7026 24.2897L90.3304 24.2863L90.35 24.6767L90.4263 25.0604L90.558 25.4284L90.7409 25.7734L90.9725 26.0879L91.2473 26.3651L91.56 26.5996L91.903 26.7853L92.2689 26.9188L92.8922 27.0375L93.5228 27.1005L94.1575 27.1073L94.5336 27.0734L94.9029 26.9927L95.2594 26.8666L95.597 26.6965L95.911 26.4857L96.125 26.2838L96.2979 26.0459L96.4242 25.7795L96.4991 25.4941L96.52 25.2007L96.487 24.9072L96.3999 24.6259L96.2628 24.365L96.0798 24.1345L95.8577 23.942L95.6038 23.7936L94.7571 23.4445L93.8928 23.1416L93.0144 22.884L92.1231 22.6732L91.0097 22.3912L89.9084 22.0632L89.3669 21.87L88.8382 21.6443L88.3237 21.3861L87.8268 21.0967L87.3764 20.8371L86.9524 20.5375L86.5574 20.1993L86.1948 19.8265L85.8687 19.4212L85.5817 18.9874L85.3359 18.5286L85.1327 18.0487L84.9754 17.5526L84.8646 17.0435L84.8005 16.5264L84.785 16.0059L84.8072 15.4711L84.8781 14.9411L84.9976 14.4192L85.1644 13.9115L85.3771 13.4208L85.6337 12.9518L85.9321 12.5085L86.2704 12.0951L86.6445 11.714L87.0523 11.3696Z" fill="white"/>
<path fill-rule="evenodd" clip-rule="evenodd" d="M20.485 9.57828H26.9893L27.4336 12.8202L27.9136 16.0573L28.4302 19.289L28.9825 22.5146L30.6489 16.0397L32.3673 9.57828H37.01L38.7095 15.9319L40.3658 22.297L41.0633 18.0473L41.8168 13.8078L42.6257 9.57828H48.9531L47.2387 16.7392L45.5575 23.9074L43.9093 31.0838H38.2301L34.7015 18.3537L32.9196 24.7167L31.1546 31.0838H25.4998L22.9718 20.3362L20.485 9.57828Z" fill="white"/>
<path fill-rule="evenodd" clip-rule="evenodd" d="M0.00506384 0.00236835L25.9616 0L25.9636 5.80873H16.6539L16.6834 18.4465L16.6717 31.0838H9.13757V5.80873H0L0.00506384 0.00236835Z" fill="white"/>
<path fill-rule="evenodd" clip-rule="evenodd" d="M51.6181 9.57828H58.3094V31.0838H51.6181V9.57828Z" fill="white"/>
<path fill-rule="evenodd" clip-rule="evenodd" d="M53.4216 39.7608L53.0475 39.6245L52.6944 39.4415L52.3669 39.2151L52.0712 38.9488L51.8112 38.6472L51.5918 38.3144L51.4162 37.9558L51.2873 37.579L51.2076 37.1879L51.1772 36.79L51.1981 36.3915L51.269 35.9984L51.3892 35.6181L51.5567 35.2562L51.822 34.8726L52.1313 34.5229L52.4783 34.2124L52.8605 33.9454L53.2704 33.7244L53.7038 33.5536L54.1542 33.4357L54.6154 33.3713L55.0806 33.3618L55.5438 33.4072L55.9982 33.5075L56.4384 33.66L56.8571 33.864L57.2494 34.1155L57.5843 34.3534L57.884 34.634L58.144 34.9526L58.3587 35.303L58.5241 35.6798L58.6376 36.0756L58.697 36.4823L58.701 36.8944L58.6497 37.3024L58.5444 37.7003L58.3864 38.0805L58.1791 38.4357L57.9259 38.759L57.641 39.0491L57.3256 39.3046L56.9826 39.5215L56.6174 39.6984L56.2345 39.8319L55.8388 39.9207L55.354 39.9844L54.8645 40L54.377 39.9675L53.8942 39.8875L53.4216 39.7608Z" fill="white"/>
</svg>
