<svg width="275" height="40" viewBox="0 0 275 40" fill="none" xmlns="http://www.w3.org/2000/svg">
<path fill-rule="evenodd" clip-rule="evenodd" d="M53.4216 0.887051L53.8942 0.760437L54.377 0.680596L54.8645 0.648333L55.354 0.663924L55.8388 0.727161L56.2345 0.816016L56.6174 0.94961L56.9826 1.12631L57.3256 1.34374L57.641 1.59906L57.9259 1.88888L58.1791 2.21272L58.3864 2.56781L58.5444 2.94765L58.6497 3.34544L58.701 3.75387L58.697 4.16548L58.6376 4.57276L58.5241 4.96832L58.3587 5.34489L58.144 5.69571L57.884 6.01434L57.5843 6.29488L57.2494 6.53237L56.8571 6.7841L56.4384 6.98784L55.9982 7.14075L55.5438 7.24065L55.0806 7.2862L54.6154 7.27678L54.1542 7.21246L53.7038 7.09418L53.2704 6.92358L52.8605 6.70303L52.4783 6.43558L52.1313 6.12489L51.822 5.77535L51.5567 5.39179L51.3892 5.02979L51.269 4.64942L51.1981 4.25678L51.1772 3.85825L51.2076 3.46032L51.2873 3.06944L51.4162 2.69192L51.5918 2.33391L51.8112 2.00126L52.0712 1.69923L52.3669 1.4328L52.6944 1.20635L53.0475 1.02342L53.4216 0.887051Z" fill="white"/>
<path fill-rule="evenodd" clip-rule="evenodd" d="M62.0582 9.57825H68.5334L68.5402 12.0103L68.9851 11.5303L69.4699 11.0902L69.9905 10.6933L70.5428 10.3425L71.1228 10.0402L71.7271 9.78884L72.3497 9.59018L72.9871 9.44561L73.6346 9.35628L74.2875 9.32273L74.852 9.30727L75.4165 9.33093L75.9776 9.39363L76.5326 9.49495L77.0802 9.63444L77.5245 9.78423L77.9532 9.9736L78.3637 10.2011L78.752 10.4648L79.1146 10.7626L79.4495 11.0921L79.7925 11.5146L80.101 11.9635L80.3731 12.4352L80.6061 12.928L80.7992 13.4377L80.9511 13.9616L81.126 14.7634L81.255 15.5741L81.3367 16.3908L81.3718 17.2109L81.3812 24.1473L81.3643 31.0838H74.6379L74.64 17.1987L74.6265 16.8191L74.5684 16.4436L74.4678 16.0777L74.3253 15.7259L74.1781 15.4636L73.9911 15.2284L73.7689 15.0257L73.5178 14.861L73.2443 14.7383L72.7514 14.6014L72.247 14.5187L71.7366 14.491L71.2261 14.5187L70.7217 14.6021L70.374 14.6936L70.0411 14.8285L69.7278 15.0061L69.4409 15.2223L69.1836 15.4737L68.9601 15.7564L68.7758 16.0654L68.7522 21.0716L68.7576 26.0777L68.7927 31.0838H62.0582V9.57825Z" fill="white"/>
<path fill-rule="evenodd" clip-rule="evenodd" d="M87.0523 11.3696L87.6215 10.9598L88.2177 10.5917L88.8382 10.267L89.4803 9.98749L90.1407 9.75454L90.8159 9.5693L91.5026 9.43266L92.1974 9.34535L92.8962 9.30787L93.5957 9.32041L94.3574 9.3051L95.1183 9.3436L95.8745 9.43557L96.6227 9.58068L97.3587 9.77812L98.0791 10.027L98.7806 10.326L99.4585 10.6738L100.111 11.0685L100.735 11.5082L101.143 11.8707L101.518 12.2679L101.856 12.6976L102.154 13.1558L102.41 13.639L102.622 14.1433L102.788 14.6645L102.907 15.1986L102.978 15.7408L103 16.2878L102.864 16.2899L100.669 16.3203L98.4714 16.3143L96.2756 16.2715L96.2574 15.9381L96.2047 15.6087L96.1196 15.2861L96.0022 14.9736L95.8806 14.7384L95.728 14.5229L95.5457 14.3311L95.3391 14.1664L95.1109 14.0335L94.7604 13.9034L94.3992 13.8098L94.0306 13.7529L93.6578 13.7339L93.2845 13.7529L92.9178 13.8085L92.5613 13.9142L92.2224 14.0667L91.907 14.264L91.6214 14.5019L91.4276 14.7052L91.2717 14.939L91.1589 15.1959L91.0921 15.4691L91.0731 15.7497L91.1029 16.0296L91.1812 16.2993L91.3041 16.5522L91.4695 16.7792L91.6714 16.9744L92.0171 17.2177L92.3844 17.4285L92.7686 17.6041L93.1676 17.7444L93.9914 17.9626L94.826 18.1307L95.8469 18.3422L96.8151 18.5787L97.7698 18.8654L98.7091 19.2002L99.258 19.4354L99.788 19.7113L100.296 20.0251L100.781 20.3762L101.237 20.7619L101.606 21.1611L101.937 21.5935L102.224 22.0557L102.468 22.5424L102.665 23.0501L102.814 23.574L102.912 24.1094L102.961 24.6523L102.958 25.1973L102.905 25.7395L102.801 26.2743L102.648 26.7968L102.445 27.2679L102.205 27.7213L101.928 28.1524L101.617 28.5597L101.272 28.94L100.899 29.2897L100.497 29.6083L99.9028 30.0122L99.2783 30.3688L98.6274 30.6738L97.9549 30.9266L97.2641 31.1245L96.4822 31.3217L95.6889 31.4695L94.8887 31.5657L94.0832 31.6111L93.277 31.605L92.4728 31.5481L91.6734 31.4397L90.8827 31.2804L90.1035 31.0716L89.3392 30.8134L88.5931 30.507L87.8673 30.1539L87.3399 29.8516L86.8403 29.5046L86.373 29.1155L85.9402 28.6878L85.5466 28.2236L85.1941 27.7274L84.8862 27.2022L84.6243 26.6518L84.4109 26.0811L84.2475 25.4941L84.1354 24.895L84.0753 24.2884L84.7026 24.2897L90.3304 24.2863L90.35 24.6767L90.4263 25.0604L90.558 25.4284L90.741 25.7734L90.9725 26.0879L91.2473 26.3651L91.56 26.5996L91.903 26.7853L92.2689 26.9188L92.8922 27.0375L93.5228 27.1005L94.1575 27.1073L94.5336 27.0734L94.9029 26.9927L95.2594 26.8666L95.597 26.6965L95.911 26.4857L96.125 26.2838L96.2979 26.0459L96.4242 25.7795L96.4991 25.4941L96.52 25.2007L96.487 24.9072L96.3999 24.6259L96.2628 24.365L96.0798 24.1345L95.8577 23.942L95.6038 23.7936L94.7571 23.4445L93.8928 23.1416L93.0144 22.884L92.1231 22.6732L91.0097 22.3912L89.9084 22.0632L89.3669 21.87L88.8382 21.6443L88.3237 21.3861L87.8268 21.0967L87.3764 20.8371L86.9524 20.5375L86.5574 20.1993L86.1948 19.8265L85.8687 19.4212L85.5817 18.9874L85.3359 18.5286L85.1327 18.0487L84.9754 17.5526L84.8646 17.0435L84.8005 16.5264L84.785 16.0059L84.8072 15.4711L84.8781 14.9411L84.9976 14.4192L85.1644 13.9115L85.3771 13.4208L85.6337 12.9518L85.9321 12.5085L86.2704 12.0951L86.6445 11.714L87.0523 11.3696Z" fill="white"/>
<path fill-rule="evenodd" clip-rule="evenodd" d="M20.485 9.57828H26.9893L27.4336 12.8202L27.9136 16.0573L28.4302 19.289L28.9825 22.5146L30.6489 16.0397L32.3673 9.57828H37.01L38.7095 15.9319L40.3658 22.297L41.0633 18.0473L41.8168 13.8078L42.6257 9.57828H48.9531L47.2387 16.7392L45.5575 23.9074L43.9093 31.0838H38.2301L34.7015 18.3537L32.9196 24.7167L31.1546 31.0838H25.4998L22.9718 20.3362L20.485 9.57828Z" fill="white"/>
<path fill-rule="evenodd" clip-rule="evenodd" d="M0.00506384 0.00236835L25.9616 0L25.9636 5.80873H16.6539L16.6834 18.4465L16.6717 31.0838H9.13757V5.80873H0L0.00506384 0.00236835Z" fill="white"/>
<path fill-rule="evenodd" clip-rule="evenodd" d="M51.6181 9.57828H58.3094V31.0838H51.6181V9.57828Z" fill="white"/>
<path fill-rule="evenodd" clip-rule="evenodd" d="M53.4216 39.7608L53.0475 39.6245L52.6944 39.4415L52.3669 39.2151L52.0712 38.9488L51.8112 38.6472L51.5918 38.3144L51.4162 37.9558L51.2873 37.579L51.2076 37.1879L51.1772 36.79L51.1981 36.3915L51.269 35.9984L51.3892 35.6181L51.5567 35.2562L51.822 34.8726L52.1313 34.5229L52.4783 34.2124L52.8605 33.9454L53.2704 33.7244L53.7038 33.5536L54.1542 33.4357L54.6154 33.3713L55.0806 33.3618L55.5438 33.4072L55.9982 33.5075L56.4384 33.66L56.8571 33.864L57.2494 34.1155L57.5843 34.3534L57.884 34.634L58.144 34.9526L58.3587 35.303L58.5241 35.6798L58.6376 36.0756L58.697 36.4823L58.701 36.8944L58.6497 37.3024L58.5444 37.7003L58.3864 38.0805L58.1791 38.4357L57.9259 38.759L57.641 39.0491L57.3256 39.3046L56.9826 39.5215L56.6174 39.6984L56.2345 39.8319L55.8388 39.9207L55.354 39.9844L54.8645 40L54.377 39.9675L53.8942 39.8875L53.4216 39.7608Z" fill="white"/>
<path d="M142.297 2.625H144.633V10.1406C144.633 11.0156 144.445 11.7526 144.07 12.3516C143.701 12.9505 143.188 13.401 142.531 13.7031C141.88 14.0052 141.13 14.1562 140.281 14.1562C139.432 14.1562 138.677 14.0052 138.016 13.7031C137.359 13.401 136.844 12.9505 136.469 12.3516C136.099 11.7526 135.914 11.0156 135.914 10.1406V2.625H138.258V10.1406C138.258 10.651 138.339 11.0677 138.5 11.3906C138.661 11.7135 138.893 11.9505 139.195 12.1016C139.503 12.2526 139.865 12.3281 140.281 12.3281C140.708 12.3281 141.07 12.2526 141.367 12.1016C141.669 11.9505 141.898 11.7135 142.055 11.3906C142.216 11.0677 142.297 10.651 142.297 10.1406V2.625ZM148.672 1.99219V14H146.422V1.99219H148.672ZM154 5.54688L150.328 9.73438L148.359 11.7266L147.539 10.1016L149.102 8.11719L151.297 5.54688H154ZM151.664 14L149.164 10.0938L150.719 8.73438L154.258 14H151.664ZM157.219 7.39062V14H154.969V5.54688H157.086L157.219 7.39062ZM159.766 5.49219L159.727 7.57812C159.617 7.5625 159.484 7.54948 159.328 7.53906C159.177 7.52344 159.039 7.51562 158.914 7.51562C158.596 7.51562 158.32 7.55729 158.086 7.64062C157.857 7.71875 157.664 7.83594 157.508 7.99219C157.357 8.14844 157.242 8.33854 157.164 8.5625C157.091 8.78646 157.049 9.04167 157.039 9.32812L156.586 9.1875C156.586 8.64062 156.641 8.13802 156.75 7.67969C156.859 7.21615 157.018 6.8125 157.227 6.46875C157.44 6.125 157.701 5.85938 158.008 5.67188C158.315 5.48438 158.667 5.39062 159.062 5.39062C159.188 5.39062 159.315 5.40104 159.445 5.42188C159.576 5.4375 159.682 5.46094 159.766 5.49219ZM165.125 12.0938V8.32812C165.125 8.05729 165.081 7.82552 164.992 7.63281C164.904 7.4349 164.766 7.28125 164.578 7.17188C164.396 7.0625 164.159 7.00781 163.867 7.00781C163.617 7.00781 163.401 7.05208 163.219 7.14062C163.036 7.22396 162.896 7.34635 162.797 7.50781C162.698 7.66406 162.648 7.84896 162.648 8.0625H160.398C160.398 7.70312 160.482 7.36198 160.648 7.03906C160.815 6.71615 161.057 6.43229 161.375 6.1875C161.693 5.9375 162.07 5.74219 162.508 5.60156C162.951 5.46094 163.445 5.39062 163.992 5.39062C164.648 5.39062 165.232 5.5 165.742 5.71875C166.253 5.9375 166.654 6.26562 166.945 6.70312C167.242 7.14062 167.391 7.6875 167.391 8.34375V11.9609C167.391 12.4245 167.419 12.8047 167.477 13.1016C167.534 13.3932 167.617 13.6484 167.727 13.8672V14H165.453C165.344 13.7708 165.26 13.4844 165.203 13.1406C165.151 12.7917 165.125 12.4427 165.125 12.0938ZM165.422 8.85156L165.438 10.125H164.18C163.883 10.125 163.625 10.1589 163.406 10.2266C163.188 10.2943 163.008 10.3906 162.867 10.5156C162.727 10.6354 162.622 10.776 162.555 10.9375C162.492 11.099 162.461 11.276 162.461 11.4688C162.461 11.6615 162.505 11.8359 162.594 11.9922C162.682 12.1432 162.81 12.263 162.977 12.3516C163.143 12.4349 163.339 12.4766 163.562 12.4766C163.901 12.4766 164.195 12.4089 164.445 12.2734C164.695 12.138 164.888 11.9714 165.023 11.7734C165.164 11.5755 165.237 11.388 165.242 11.2109L165.836 12.1641C165.753 12.3776 165.638 12.599 165.492 12.8281C165.352 13.0573 165.172 13.2734 164.953 13.4766C164.734 13.6745 164.471 13.8385 164.164 13.9688C163.857 14.0938 163.492 14.1562 163.07 14.1562C162.534 14.1562 162.047 14.0495 161.609 13.8359C161.177 13.6172 160.833 13.3177 160.578 12.9375C160.328 12.5521 160.203 12.1146 160.203 11.625C160.203 11.1823 160.286 10.7891 160.453 10.4453C160.62 10.1016 160.865 9.8125 161.188 9.57812C161.516 9.33854 161.924 9.15885 162.414 9.03906C162.904 8.91406 163.471 8.85156 164.117 8.85156H165.422ZM171.5 5.54688V14H169.242V5.54688H171.5ZM169.102 3.34375C169.102 3.01562 169.216 2.74479 169.445 2.53125C169.674 2.31771 169.982 2.21094 170.367 2.21094C170.747 2.21094 171.052 2.31771 171.281 2.53125C171.516 2.74479 171.633 3.01562 171.633 3.34375C171.633 3.67188 171.516 3.94271 171.281 4.15625C171.052 4.36979 170.747 4.47656 170.367 4.47656C169.982 4.47656 169.674 4.36979 169.445 4.15625C169.216 3.94271 169.102 3.67188 169.102 3.34375ZM175.562 7.35156V14H173.312V5.54688H175.422L175.562 7.35156ZM175.234 9.47656H174.625C174.625 8.85156 174.706 8.28906 174.867 7.78906C175.029 7.28385 175.255 6.85417 175.547 6.5C175.839 6.14062 176.185 5.86719 176.586 5.67969C176.992 5.48698 177.445 5.39062 177.945 5.39062C178.341 5.39062 178.703 5.44792 179.031 5.5625C179.359 5.67708 179.641 5.85938 179.875 6.10938C180.115 6.35938 180.297 6.6901 180.422 7.10156C180.552 7.51302 180.617 8.01562 180.617 8.60938V14H178.352V8.60156C178.352 8.22656 178.299 7.9349 178.195 7.72656C178.091 7.51823 177.938 7.3724 177.734 7.28906C177.536 7.20052 177.292 7.15625 177 7.15625C176.698 7.15625 176.435 7.21615 176.211 7.33594C175.992 7.45573 175.81 7.6224 175.664 7.83594C175.523 8.04427 175.417 8.28906 175.344 8.57031C175.271 8.85156 175.234 9.15365 175.234 9.47656ZM184.703 5.54688V14H182.445V5.54688H184.703ZM182.305 3.34375C182.305 3.01562 182.419 2.74479 182.648 2.53125C182.878 2.31771 183.185 2.21094 183.57 2.21094C183.951 2.21094 184.255 2.31771 184.484 2.53125C184.719 2.74479 184.836 3.01562 184.836 3.34375C184.836 3.67188 184.719 3.94271 184.484 4.15625C184.255 4.36979 183.951 4.47656 183.57 4.47656C183.185 4.47656 182.878 4.36979 182.648 4.15625C182.419 3.94271 182.305 3.67188 182.305 3.34375ZM191.125 12.0938V8.32812C191.125 8.05729 191.081 7.82552 190.992 7.63281C190.904 7.4349 190.766 7.28125 190.578 7.17188C190.396 7.0625 190.159 7.00781 189.867 7.00781C189.617 7.00781 189.401 7.05208 189.219 7.14062C189.036 7.22396 188.896 7.34635 188.797 7.50781C188.698 7.66406 188.648 7.84896 188.648 8.0625H186.398C186.398 7.70312 186.482 7.36198 186.648 7.03906C186.815 6.71615 187.057 6.43229 187.375 6.1875C187.693 5.9375 188.07 5.74219 188.508 5.60156C188.951 5.46094 189.445 5.39062 189.992 5.39062C190.648 5.39062 191.232 5.5 191.742 5.71875C192.253 5.9375 192.654 6.26562 192.945 6.70312C193.242 7.14062 193.391 7.6875 193.391 8.34375V11.9609C193.391 12.4245 193.419 12.8047 193.477 13.1016C193.534 13.3932 193.617 13.6484 193.727 13.8672V14H191.453C191.344 13.7708 191.26 13.4844 191.203 13.1406C191.151 12.7917 191.125 12.4427 191.125 12.0938ZM191.422 8.85156L191.438 10.125H190.18C189.883 10.125 189.625 10.1589 189.406 10.2266C189.188 10.2943 189.008 10.3906 188.867 10.5156C188.727 10.6354 188.622 10.776 188.555 10.9375C188.492 11.099 188.461 11.276 188.461 11.4688C188.461 11.6615 188.505 11.8359 188.594 11.9922C188.682 12.1432 188.81 12.263 188.977 12.3516C189.143 12.4349 189.339 12.4766 189.562 12.4766C189.901 12.4766 190.195 12.4089 190.445 12.2734C190.695 12.138 190.888 11.9714 191.023 11.7734C191.164 11.5755 191.237 11.388 191.242 11.2109L191.836 12.1641C191.753 12.3776 191.638 12.599 191.492 12.8281C191.352 13.0573 191.172 13.2734 190.953 13.4766C190.734 13.6745 190.471 13.8385 190.164 13.9688C189.857 14.0938 189.492 14.1562 189.07 14.1562C188.534 14.1562 188.047 14.0495 187.609 13.8359C187.177 13.6172 186.833 13.3177 186.578 12.9375C186.328 12.5521 186.203 12.1146 186.203 11.625C186.203 11.1823 186.286 10.7891 186.453 10.4453C186.62 10.1016 186.865 9.8125 187.188 9.57812C187.516 9.33854 187.924 9.15885 188.414 9.03906C188.904 8.91406 189.471 8.85156 190.117 8.85156H191.422ZM197.328 7.35156V14H195.078V5.54688H197.188L197.328 7.35156ZM197 9.47656H196.391C196.391 8.85156 196.471 8.28906 196.633 7.78906C196.794 7.28385 197.021 6.85417 197.312 6.5C197.604 6.14062 197.951 5.86719 198.352 5.67969C198.758 5.48698 199.211 5.39062 199.711 5.39062C200.107 5.39062 200.469 5.44792 200.797 5.5625C201.125 5.67708 201.406 5.85938 201.641 6.10938C201.88 6.35938 202.062 6.6901 202.188 7.10156C202.318 7.51302 202.383 8.01562 202.383 8.60938V14H200.117V8.60156C200.117 8.22656 200.065 7.9349 199.961 7.72656C199.857 7.51823 199.703 7.3724 199.5 7.28906C199.302 7.20052 199.057 7.15625 198.766 7.15625C198.464 7.15625 198.201 7.21615 197.977 7.33594C197.758 7.45573 197.576 7.6224 197.43 7.83594C197.289 8.04427 197.182 8.28906 197.109 8.57031C197.036 8.85156 197 9.15365 197 9.47656ZM140.531 25.6328L136.766 36H135.227L139.562 24.625H140.555L140.531 25.6328ZM143.688 36L139.914 25.6328L139.891 24.625H140.883L145.234 36H143.688ZM143.492 31.7891V33.0234H137.102V31.7891H143.492ZM147.984 28.875V36H146.539V27.5469H147.945L147.984 28.875ZM150.625 27.5L150.617 28.8438C150.497 28.8177 150.383 28.8021 150.273 28.7969C150.169 28.7865 150.049 28.7812 149.914 28.7812C149.581 28.7812 149.286 28.8333 149.031 28.9375C148.776 29.0417 148.56 29.1875 148.383 29.375C148.206 29.5625 148.065 29.7865 147.961 30.0469C147.862 30.3021 147.797 30.5833 147.766 30.8906L147.359 31.125C147.359 30.6146 147.409 30.1354 147.508 29.6875C147.612 29.2396 147.771 28.8438 147.984 28.5C148.198 28.151 148.469 27.8802 148.797 27.6875C149.13 27.4896 149.526 27.3906 149.984 27.3906C150.089 27.3906 150.208 27.4036 150.344 27.4297C150.479 27.4505 150.573 27.474 150.625 27.5ZM155.188 34.9688C155.531 34.9688 155.849 34.8984 156.141 34.7578C156.432 34.6172 156.672 34.4245 156.859 34.1797C157.047 33.9297 157.154 33.6458 157.18 33.3281H158.555C158.529 33.8281 158.359 34.2943 158.047 34.7266C157.74 35.1536 157.336 35.5 156.836 35.7656C156.336 36.026 155.786 36.1562 155.188 36.1562C154.552 36.1562 153.997 36.0443 153.523 35.8203C153.055 35.5964 152.664 35.2891 152.352 34.8984C152.044 34.5078 151.812 34.0599 151.656 33.5547C151.505 33.0443 151.43 32.5052 151.43 31.9375V31.6094C151.43 31.0417 151.505 30.5052 151.656 30C151.812 29.4896 152.044 29.0391 152.352 28.6484C152.664 28.2578 153.055 27.9505 153.523 27.7266C153.997 27.5026 154.552 27.3906 155.188 27.3906C155.849 27.3906 156.427 27.526 156.922 27.7969C157.417 28.0625 157.805 28.4271 158.086 28.8906C158.372 29.349 158.529 29.8698 158.555 30.4531H157.18C157.154 30.1042 157.055 29.7891 156.883 29.5078C156.716 29.2266 156.487 29.0026 156.195 28.8359C155.909 28.6641 155.573 28.5781 155.188 28.5781C154.745 28.5781 154.372 28.6667 154.07 28.8438C153.773 29.0156 153.536 29.25 153.359 29.5469C153.188 29.8385 153.062 30.1641 152.984 30.5234C152.911 30.8776 152.875 31.2396 152.875 31.6094V31.9375C152.875 32.3073 152.911 32.6719 152.984 33.0312C153.057 33.3906 153.18 33.7161 153.352 34.0078C153.529 34.2995 153.766 34.5339 154.062 34.7109C154.365 34.8828 154.74 34.9688 155.188 34.9688ZM161.625 24V36H160.18V24H161.625ZM161.281 31.4531L160.68 31.4297C160.685 30.8516 160.771 30.3177 160.938 29.8281C161.104 29.3333 161.339 28.9036 161.641 28.5391C161.943 28.1745 162.302 27.8932 162.719 27.6953C163.141 27.4922 163.607 27.3906 164.117 27.3906C164.534 27.3906 164.909 27.4479 165.242 27.5625C165.576 27.6719 165.859 27.849 166.094 28.0938C166.333 28.3385 166.516 28.6562 166.641 29.0469C166.766 29.4323 166.828 29.9036 166.828 30.4609V36H165.375V30.4453C165.375 30.0026 165.31 29.6484 165.18 29.3828C165.049 29.112 164.859 28.9167 164.609 28.7969C164.359 28.6719 164.052 28.6094 163.688 28.6094C163.328 28.6094 163 28.6849 162.703 28.8359C162.411 28.987 162.159 29.1953 161.945 29.4609C161.737 29.7266 161.573 30.0312 161.453 30.375C161.339 30.7135 161.281 31.0729 161.281 31.4531ZM170.562 27.5469V36H169.109V27.5469H170.562ZM169 25.3047C169 25.0703 169.07 24.8724 169.211 24.7109C169.357 24.5495 169.57 24.4688 169.852 24.4688C170.128 24.4688 170.339 24.5495 170.484 24.7109C170.635 24.8724 170.711 25.0703 170.711 25.3047C170.711 25.5286 170.635 25.7214 170.484 25.8828C170.339 26.0391 170.128 26.1172 169.852 26.1172C169.57 26.1172 169.357 26.0391 169.211 25.8828C169.07 25.7214 169 25.5286 169 25.3047ZM176.422 27.5469V28.6562H171.852V27.5469H176.422ZM173.398 25.4922H174.844V33.9062C174.844 34.1927 174.888 34.4089 174.977 34.5547C175.065 34.7005 175.18 34.7969 175.32 34.8438C175.461 34.8906 175.612 34.9141 175.773 34.9141C175.893 34.9141 176.018 34.9036 176.148 34.8828C176.284 34.8568 176.385 34.8359 176.453 34.8203L176.461 36C176.346 36.0365 176.195 36.0703 176.008 36.1016C175.826 36.138 175.604 36.1562 175.344 36.1562C174.99 36.1562 174.664 36.0859 174.367 35.9453C174.07 35.8047 173.833 35.5703 173.656 35.2422C173.484 34.9089 173.398 34.4609 173.398 33.8984V25.4922ZM181.625 36.1562C181.036 36.1562 180.503 36.0573 180.023 35.8594C179.549 35.6562 179.141 35.3724 178.797 35.0078C178.458 34.6432 178.198 34.2109 178.016 33.7109C177.833 33.2109 177.742 32.6641 177.742 32.0703V31.7422C177.742 31.0547 177.844 30.4427 178.047 29.9062C178.25 29.3646 178.526 28.9062 178.875 28.5312C179.224 28.1562 179.62 27.8724 180.062 27.6797C180.505 27.487 180.964 27.3906 181.438 27.3906C182.042 27.3906 182.562 27.4948 183 27.7031C183.443 27.9115 183.805 28.2031 184.086 28.5781C184.367 28.9479 184.576 29.3854 184.711 29.8906C184.846 30.3906 184.914 30.9375 184.914 31.5312V32.1797H178.602V31H183.469V30.8906C183.448 30.5156 183.37 30.151 183.234 29.7969C183.104 29.4427 182.896 29.151 182.609 28.9219C182.323 28.6927 181.932 28.5781 181.438 28.5781C181.109 28.5781 180.807 28.6484 180.531 28.7891C180.255 28.9245 180.018 29.1276 179.82 29.3984C179.622 29.6693 179.469 30 179.359 30.3906C179.25 30.7812 179.195 31.2318 179.195 31.7422V32.0703C179.195 32.4714 179.25 32.849 179.359 33.2031C179.474 33.5521 179.638 33.8594 179.852 34.125C180.07 34.3906 180.333 34.599 180.641 34.75C180.953 34.901 181.307 34.9766 181.703 34.9766C182.214 34.9766 182.646 34.8724 183 34.6641C183.354 34.4557 183.664 34.1771 183.93 33.8281L184.805 34.5234C184.622 34.7995 184.391 35.0625 184.109 35.3125C183.828 35.5625 183.482 35.7656 183.07 35.9219C182.664 36.0781 182.182 36.1562 181.625 36.1562ZM189.984 34.9688C190.328 34.9688 190.646 34.8984 190.938 34.7578C191.229 34.6172 191.469 34.4245 191.656 34.1797C191.844 33.9297 191.951 33.6458 191.977 33.3281H193.352C193.326 33.8281 193.156 34.2943 192.844 34.7266C192.536 35.1536 192.133 35.5 191.633 35.7656C191.133 36.026 190.583 36.1562 189.984 36.1562C189.349 36.1562 188.794 36.0443 188.32 35.8203C187.852 35.5964 187.461 35.2891 187.148 34.8984C186.841 34.5078 186.609 34.0599 186.453 33.5547C186.302 33.0443 186.227 32.5052 186.227 31.9375V31.6094C186.227 31.0417 186.302 30.5052 186.453 30C186.609 29.4896 186.841 29.0391 187.148 28.6484C187.461 28.2578 187.852 27.9505 188.32 27.7266C188.794 27.5026 189.349 27.3906 189.984 27.3906C190.646 27.3906 191.224 27.526 191.719 27.7969C192.214 28.0625 192.602 28.4271 192.883 28.8906C193.169 29.349 193.326 29.8698 193.352 30.4531H191.977C191.951 30.1042 191.852 29.7891 191.68 29.5078C191.513 29.2266 191.284 29.0026 190.992 28.8359C190.706 28.6641 190.37 28.5781 189.984 28.5781C189.542 28.5781 189.169 28.6667 188.867 28.8438C188.57 29.0156 188.333 29.25 188.156 29.5469C187.984 29.8385 187.859 30.1641 187.781 30.5234C187.708 30.8776 187.672 31.2396 187.672 31.6094V31.9375C187.672 32.3073 187.708 32.6719 187.781 33.0312C187.854 33.3906 187.977 33.7161 188.148 34.0078C188.326 34.2995 188.562 34.5339 188.859 34.7109C189.161 34.8828 189.536 34.9688 189.984 34.9688ZM198.516 27.5469V28.6562H193.945V27.5469H198.516ZM195.492 25.4922H196.938V33.9062C196.938 34.1927 196.982 34.4089 197.07 34.5547C197.159 34.7005 197.273 34.7969 197.414 34.8438C197.555 34.8906 197.706 34.9141 197.867 34.9141C197.987 34.9141 198.112 34.9036 198.242 34.8828C198.378 34.8568 198.479 34.8359 198.547 34.8203L198.555 36C198.44 36.0365 198.289 36.0703 198.102 36.1016C197.919 36.138 197.698 36.1562 197.438 36.1562C197.083 36.1562 196.758 36.0859 196.461 35.9453C196.164 35.8047 195.927 35.5703 195.75 35.2422C195.578 34.9089 195.492 34.4609 195.492 33.8984V25.4922ZM205.383 34.0469V27.5469H206.836V36H205.453L205.383 34.0469ZM205.656 32.2656L206.258 32.25C206.258 32.8125 206.198 33.3333 206.078 33.8125C205.964 34.2865 205.776 34.6979 205.516 35.0469C205.255 35.3958 204.914 35.6693 204.492 35.8672C204.07 36.0599 203.557 36.1562 202.953 36.1562C202.542 36.1562 202.164 36.0964 201.82 35.9766C201.482 35.8568 201.19 35.6719 200.945 35.4219C200.701 35.1719 200.51 34.8464 200.375 34.4453C200.245 34.0443 200.18 33.5625 200.18 33V27.5469H201.625V33.0156C201.625 33.3958 201.667 33.7109 201.75 33.9609C201.839 34.2057 201.956 34.401 202.102 34.5469C202.253 34.6875 202.419 34.7865 202.602 34.8438C202.789 34.901 202.982 34.9297 203.18 34.9297C203.794 34.9297 204.281 34.8125 204.641 34.5781C205 34.3385 205.258 34.0182 205.414 33.6172C205.576 33.2109 205.656 32.7604 205.656 32.2656ZM210.484 28.875V36H209.039V27.5469H210.445L210.484 28.875ZM213.125 27.5L213.117 28.8438C212.997 28.8177 212.883 28.8021 212.773 28.7969C212.669 28.7865 212.549 28.7812 212.414 28.7812C212.081 28.7812 211.786 28.8333 211.531 28.9375C211.276 29.0417 211.06 29.1875 210.883 29.375C210.706 29.5625 210.565 29.7865 210.461 30.0469C210.362 30.3021 210.297 30.5833 210.266 30.8906L209.859 31.125C209.859 30.6146 209.909 30.1354 210.008 29.6875C210.112 29.2396 210.271 28.8438 210.484 28.5C210.698 28.151 210.969 27.8802 211.297 27.6875C211.63 27.4896 212.026 27.3906 212.484 27.3906C212.589 27.3906 212.708 27.4036 212.844 27.4297C212.979 27.4505 213.073 27.474 213.125 27.5ZM219.133 34.5547V30.2031C219.133 29.8698 219.065 29.5807 218.93 29.3359C218.799 29.0859 218.602 28.8932 218.336 28.7578C218.07 28.6224 217.742 28.5547 217.352 28.5547C216.987 28.5547 216.667 28.6172 216.391 28.7422C216.12 28.8672 215.906 29.0312 215.75 29.2344C215.599 29.4375 215.523 29.6562 215.523 29.8906H214.078C214.078 29.5885 214.156 29.2891 214.312 28.9922C214.469 28.6953 214.693 28.4271 214.984 28.1875C215.281 27.9427 215.635 27.75 216.047 27.6094C216.464 27.4635 216.927 27.3906 217.438 27.3906C218.052 27.3906 218.594 27.4948 219.062 27.7031C219.536 27.9115 219.906 28.2266 220.172 28.6484C220.443 29.0651 220.578 29.5885 220.578 30.2188V34.1562C220.578 34.4375 220.602 34.737 220.648 35.0547C220.701 35.3724 220.776 35.6458 220.875 35.875V36H219.367C219.294 35.8333 219.237 35.612 219.195 35.3359C219.154 35.0547 219.133 34.7943 219.133 34.5547ZM219.383 30.875L219.398 31.8906H217.938C217.526 31.8906 217.159 31.9245 216.836 31.9922C216.513 32.0547 216.242 32.151 216.023 32.2812C215.805 32.4115 215.638 32.5755 215.523 32.7734C215.409 32.9661 215.352 33.1927 215.352 33.4531C215.352 33.7188 215.411 33.9609 215.531 34.1797C215.651 34.3984 215.831 34.5729 216.07 34.7031C216.315 34.8281 216.615 34.8906 216.969 34.8906C217.411 34.8906 217.802 34.7969 218.141 34.6094C218.479 34.4219 218.747 34.1927 218.945 33.9219C219.148 33.651 219.258 33.388 219.273 33.1328L219.891 33.8281C219.854 34.0469 219.755 34.2891 219.594 34.5547C219.432 34.8203 219.216 35.0755 218.945 35.3203C218.68 35.5599 218.362 35.7604 217.992 35.9219C217.628 36.0781 217.216 36.1562 216.758 36.1562C216.185 36.1562 215.682 36.0443 215.25 35.8203C214.823 35.5964 214.49 35.2969 214.25 34.9219C214.016 34.5417 213.898 34.1172 213.898 33.6484C213.898 33.1953 213.987 32.7969 214.164 32.4531C214.341 32.1042 214.596 31.8151 214.93 31.5859C215.263 31.3516 215.664 31.1745 216.133 31.0547C216.602 30.9349 217.125 30.875 217.703 30.875H219.383ZM224.422 24V36H222.969V24H224.422ZM239.688 29.9531V30.6719C239.688 31.526 239.581 32.2917 239.367 32.9688C239.154 33.6458 238.846 34.2214 238.445 34.6953C238.044 35.1693 237.562 35.5312 237 35.7812C236.443 36.0312 235.818 36.1562 235.125 36.1562C234.453 36.1562 233.836 36.0312 233.273 35.7812C232.716 35.5312 232.232 35.1693 231.82 34.6953C231.414 34.2214 231.099 33.6458 230.875 32.9688C230.651 32.2917 230.539 31.526 230.539 30.6719V29.9531C230.539 29.099 230.648 28.3359 230.867 27.6641C231.091 26.987 231.406 26.4115 231.812 25.9375C232.219 25.4583 232.701 25.0938 233.258 24.8438C233.82 24.5938 234.438 24.4688 235.109 24.4688C235.802 24.4688 236.427 24.5938 236.984 24.8438C237.547 25.0938 238.029 25.4583 238.43 25.9375C238.836 26.4115 239.146 26.987 239.359 27.6641C239.578 28.3359 239.688 29.099 239.688 29.9531ZM238.195 30.6719V29.9375C238.195 29.2604 238.125 28.6615 237.984 28.1406C237.849 27.6198 237.648 27.1823 237.383 26.8281C237.117 26.474 236.792 26.2057 236.406 26.0234C236.026 25.8411 235.594 25.75 235.109 25.75C234.641 25.75 234.216 25.8411 233.836 26.0234C233.461 26.2057 233.138 26.474 232.867 26.8281C232.602 27.1823 232.396 27.6198 232.25 28.1406C232.104 28.6615 232.031 29.2604 232.031 29.9375V30.6719C232.031 31.3542 232.104 31.9583 232.25 32.4844C232.396 33.0052 232.604 33.4453 232.875 33.8047C233.151 34.1589 233.477 34.4271 233.852 34.6094C234.232 34.7917 234.656 34.8828 235.125 34.8828C235.615 34.8828 236.049 34.7917 236.43 34.6094C236.81 34.4271 237.13 34.1589 237.391 33.8047C237.656 33.4453 237.857 33.0052 237.992 32.4844C238.128 31.9583 238.195 31.3542 238.195 30.6719ZM243.883 36H242.438V26.6562C242.438 26.0469 242.547 25.5339 242.766 25.1172C242.99 24.6953 243.31 24.3776 243.727 24.1641C244.143 23.9453 244.638 23.8359 245.211 23.8359C245.378 23.8359 245.544 23.8464 245.711 23.8672C245.883 23.888 246.049 23.9193 246.211 23.9609L246.133 25.1406C246.023 25.1146 245.898 25.0964 245.758 25.0859C245.622 25.0755 245.487 25.0703 245.352 25.0703C245.044 25.0703 244.779 25.1328 244.555 25.2578C244.336 25.3776 244.169 25.5547 244.055 25.7891C243.94 26.0234 243.883 26.3125 243.883 26.6562V36ZM245.758 27.5469V28.6562H241.102V27.5469H245.758ZM248.453 36H247.008V26.8125C247.008 26.1719 247.13 25.6302 247.375 25.1875C247.625 24.7448 247.982 24.4089 248.445 24.1797C248.909 23.9505 249.458 23.8359 250.094 23.8359C250.474 23.8359 250.844 23.8828 251.203 23.9766C251.562 24.0651 251.932 24.1771 252.312 24.3125L252.062 25.5312C251.828 25.4375 251.552 25.349 251.234 25.2656C250.917 25.1771 250.573 25.1328 250.203 25.1328C249.583 25.1328 249.135 25.2734 248.859 25.5547C248.589 25.8307 248.453 26.25 248.453 26.8125V36ZM250.18 27.5469V28.6562H245.672V27.5469H250.18ZM253.023 27.5469V36H251.578V27.5469H253.023ZM258.766 34.9688C259.109 34.9688 259.427 34.8984 259.719 34.7578C260.01 34.6172 260.25 34.4245 260.438 34.1797C260.625 33.9297 260.732 33.6458 260.758 33.3281H262.133C262.107 33.8281 261.938 34.2943 261.625 34.7266C261.318 35.1536 260.914 35.5 260.414 35.7656C259.914 36.026 259.365 36.1562 258.766 36.1562C258.13 36.1562 257.576 36.0443 257.102 35.8203C256.633 35.5964 256.242 35.2891 255.93 34.8984C255.622 34.5078 255.391 34.0599 255.234 33.5547C255.083 33.0443 255.008 32.5052 255.008 31.9375V31.6094C255.008 31.0417 255.083 30.5052 255.234 30C255.391 29.4896 255.622 29.0391 255.93 28.6484C256.242 28.2578 256.633 27.9505 257.102 27.7266C257.576 27.5026 258.13 27.3906 258.766 27.3906C259.427 27.3906 260.005 27.526 260.5 27.7969C260.995 28.0625 261.383 28.4271 261.664 28.8906C261.951 29.349 262.107 29.8698 262.133 30.4531H260.758C260.732 30.1042 260.633 29.7891 260.461 29.5078C260.294 29.2266 260.065 29.0026 259.773 28.8359C259.487 28.6641 259.151 28.5781 258.766 28.5781C258.323 28.5781 257.951 28.6667 257.648 28.8438C257.352 29.0156 257.115 29.25 256.938 29.5469C256.766 29.8385 256.641 30.1641 256.562 30.5234C256.49 30.8776 256.453 31.2396 256.453 31.6094V31.9375C256.453 32.3073 256.49 32.6719 256.562 33.0312C256.635 33.3906 256.758 33.7161 256.93 34.0078C257.107 34.2995 257.344 34.5339 257.641 34.7109C257.943 34.8828 258.318 34.9688 258.766 34.9688ZM267.266 36.1562C266.677 36.1562 266.143 36.0573 265.664 35.8594C265.19 35.6562 264.781 35.3724 264.438 35.0078C264.099 34.6432 263.839 34.2109 263.656 33.7109C263.474 33.2109 263.383 32.6641 263.383 32.0703V31.7422C263.383 31.0547 263.484 30.4427 263.688 29.9062C263.891 29.3646 264.167 28.9062 264.516 28.5312C264.865 28.1562 265.26 27.8724 265.703 27.6797C266.146 27.487 266.604 27.3906 267.078 27.3906C267.682 27.3906 268.203 27.4948 268.641 27.7031C269.083 27.9115 269.445 28.2031 269.727 28.5781C270.008 28.9479 270.216 29.3854 270.352 29.8906C270.487 30.3906 270.555 30.9375 270.555 31.5312V32.1797H264.242V31H269.109V30.8906C269.089 30.5156 269.01 30.151 268.875 29.7969C268.745 29.4427 268.536 29.151 268.25 28.9219C267.964 28.6927 267.573 28.5781 267.078 28.5781C266.75 28.5781 266.448 28.6484 266.172 28.7891C265.896 28.9245 265.659 29.1276 265.461 29.3984C265.263 29.6693 265.109 30 265 30.3906C264.891 30.7812 264.836 31.2318 264.836 31.7422V32.0703C264.836 32.4714 264.891 32.849 265 33.2031C265.115 33.5521 265.279 33.8594 265.492 34.125C265.711 34.3906 265.974 34.599 266.281 34.75C266.594 34.901 266.948 34.9766 267.344 34.9766C267.854 34.9766 268.286 34.8724 268.641 34.6641C268.995 34.4557 269.305 34.1771 269.57 33.8281L270.445 34.5234C270.263 34.7995 270.031 35.0625 269.75 35.3125C269.469 35.5625 269.122 35.7656 268.711 35.9219C268.305 36.0781 267.823 36.1562 267.266 36.1562Z" fill="white"/>
<line x1="121" y1="8.74228e-08" x2="121" y2="20" stroke="#3860AE" stroke-width="4"/>
<line x1="121" y1="20" x2="121" y2="40" stroke="#FFEE51" stroke-width="4"/>
</svg>
